<?xml version="1.0" ?><!DOCTYPE svg  PUBLIC '-//W3C//DTD SVG 1.1//EN'  'http://www.w3.org/Graphics/SVG/1.1/DTD/svg11.dtd'><svg enable-background="new 0 0 100 100" height="100px" id="Layer_1" version="1.1" viewBox="0 0 100 100" width="100px" xml:space="preserve" xmlns="http://www.w3.org/2000/svg" xmlns:xlink="http://www.w3.org/1999/xlink"><g><g><g><g/></g><g/></g></g><g><path d="M68,17h-1v-1.5c0-1.1-0.9-1.5-2-1.5H54c0-3-1.791-4-4-4s-4,1-4,4H35c-1.1,0-2,0.4-2,1.5V17h-1   c-6.617,0-12,4.883-12,11.5v50C20,85.117,25.383,91,32,91h36c6.617,0,12-5.883,12-12.5v-50C80,21.883,74.617,17,68,17z M50,11.5   c1.104,0,2,0.896,2,2s-0.896,2-2,2s-2-0.896-2-2S48.896,11.5,50,11.5z M76,78.5c0,4.411-3.589,8.5-8,8.5H32c-4.411,0-8-4.089-8-8.5   v-50c0-4.411,3.589-7.5,8-7.5h1l-1,4c0,1.1,0.9,2,2,2h32c1.1,0,2-0.9,2-2l-1-4h1c4.411,0,8,3.089,8,7.5V78.5z" fill="#231F20"/><rect fill="#231F20" height="4" width="26" x="42" y="41"/><rect fill="#231F20" height="4" width="26" x="42" y="57"/><rect fill="#231F20" height="4" width="26" x="42" y="73"/><path d="M29,47h10V37H29V47z M31,39h6v6h-6V39z" fill="#231F20"/><path d="M29,62h10V52H29V62z M31,54h6v6h-6V54z" fill="#231F20"/><path d="M29,78h10V68H29V78z M31,70h6v6h-6V70z" fill="#231F20"/><rect fill="#231F20" height="4" width="4" x="32" y="71"/></g></svg>