<?xml version="1.0" ?><!DOCTYPE svg  PUBLIC '-//W3C//DTD SVG 1.1//EN'  'http://www.w3.org/Graphics/SVG/1.1/DTD/svg11.dtd'><svg height="6.82666in" style="shape-rendering:geometricPrecision; text-rendering:geometricPrecision; image-rendering:optimizeQuality; fill-rule:evenodd; clip-rule:evenodd" viewBox="0 0 6.82666 6.82666" width="6.82666in" xml:space="preserve" xmlns="http://www.w3.org/2000/svg" xmlns:xlink="http://www.w3.org/1999/xlink"><defs><style type="text/css">
   <![CDATA[
    .fil1 {fill:none}
    .fil0 {fill:black;fill-rule:nonzero}
   ]]>
  </style></defs><g id="Layer_x0020_1"><g id="_306073600"><path class="fil0" d="M3.68863 1.80285l0.750965 0.750969c0.0100236,0.0100236 0.0190354,0.0206811 0.0270433,0.0318504 -0.0451102,0.0214252 -0.086689,0.050563 -0.122803,0.0866732l-0.824906 0.824909c-0.0361102,0.0361102 -0.0652402,0.0776929 -0.0866693,0.122799 -0.0111693,-0.00800787 -0.0218268,-0.0170197 -0.0318465,-0.0270394l-3.93701e-006 -3.93701e-006 -0.750969 -0.750969c-0.0100236,-0.0100236 -0.0190354,-0.0206811 -0.0270433,-0.0318504 0.0451063,-0.0214252 0.086689,-0.0505591 0.122799,-0.0866693l0.824909 -0.824909c0.0361102,-0.0361142 0.065248,-0.0776929 0.0866732,-0.122803 0.0111693,0.00800787 0.0218268,0.0170197 0.0318504,0.0270433z" id="_306267792"/><path class="fil0" d="M2.17474 2.66695l-7.87402e-006 -7.87402e-006c-0.0707244,-0.0707244 -0.106091,-0.16387 -0.106091,-0.256945 0,-0.0930748 0.0353661,-0.18622 0.106091,-0.256945l0.824909 -0.824909c0.0707283,-0.0707283 0.16387,-0.106094 0.256945,-0.106094 0.0930748,0 0.186217,0.0353701 0.256945,0.106098l3.93701e-006 3.93701e-006c0.0707283,0.0707283 0.106098,0.16387 0.106098,0.256945 0,0.0930748 -0.0353661,0.186217 -0.106094,0.256945l-0.824909 0.824909c-0.0707244,0.0707244 -0.16387,0.106091 -0.256945,0.106091 -0.0930748,0 -0.18622,-0.0353661 -0.256945,-0.106091z" id="_306268176"/><path class="fil0" d="M3.83244 4.17381c-0.0927087,0 -0.18548,-0.0350945 -0.256102,-0.105264l-0.000854331 -0.000830709 3.93701e-006 -3.93701e-006c-0.0707283,-0.0707283 -0.106094,-0.163874 -0.106094,-0.256949 0,-0.0930748 0.0353701,-0.186217 0.106094,-0.256941l0.824906 -0.824909c0.0707283,-0.0707283 0.16387,-0.106094 0.256945,-0.106094 0.0922756,0 0.184618,0.0347717 0.255118,0.104287 0.00125984,0.00118504 0.00248819,0.00241339 0.0036811,0.00368504 0.0694921,0.0704961 0.104252,0.162811 0.104252,0.255075 0,0.0930709 -0.0353661,0.186213 -0.106091,0.256941l-3.93701e-006 3.93701e-006 -0.824909 0.824909 -3.93701e-006 3.93701e-006c-0.0707205,0.0707165 -0.163858,0.106087 -0.256941,0.106087z" id="_306268320"/><path class="fil0" d="M3.16546 3.4712l-0.602823 0.602823 3.93701e-006 3.93701e-006c-0.0312402,0.0312402 -0.0818937,0.0312402 -0.113134,0l-0.000287402 -0.000295276 -0.287646 -0.287642 -3.93701e-006 7.87402e-006c-0.0312402,-0.0312402 -0.0312441,-0.0818976 -3.93701e-006,-0.113138l0.000444882 -0.000433071 0.602386 -0.602386 0.401063 0.401059z" id="_306270120"/><path class="fil0" d="M2.25135 3.64961l0.33463 0.33463c0.0498622,0.0498701 0.0747992,0.115504 0.0747992,0.181075 0,0.0655709 -0.0249409,0.131217 -0.0747992,0.181075l-0.961071 0.961071c-0.0498661,0.0498661 -0.115504,0.0748031 -0.181079,0.0748031 -0.0655709,0 -0.131217,-0.0249409 -0.181075,-0.0747992l-0.33463 -0.33463c-0.0496535,-0.0496535 -0.0744882,-0.115311 -0.0744843,-0.181075l-0.000311024 0c0,-0.0655709 0.0249409,-0.131217 0.0747992,-0.181075l0.961071 -0.961075c0.0498622,-0.0498622 0.115504,-0.0747953 0.181075,-0.0747953 0.0655748,0 0.131213,0.0249331 0.181075,0.0747953z" id="_306074704"/><path class="fil0" d="M3.52172 4.98099l2.37161 0c0.0441811,0 0.08,0.0358189 0.08,0.08l0 0.463622c0,0.0441811 -0.0358189,0.08 -0.08,0.08l-2.37161 0c-0.0441811,0 -0.08,-0.0358189 -0.08,-0.08l0 -0.463622c0,-0.0441811 0.0358189,-0.08 0.08,-0.08z" id="_306074248"/><path class="fil0" d="M3.85185 4.90099l0 -0.303626c0,-0.0441811 0.0358189,-0.08 0.08,-0.08l1.55135 0c0.0441811,0 0.08,0.0358189 0.08,0.08l0 0.303626 -1.71135 0z" id="_306074104"/></g></g><rect class="fil1" height="6.82666" width="6.82666"/></svg>