<?xml version="1.0" standalone="no"?>
<!DOCTYPE svg PUBLIC "-//W3C//DTD SVG 20010904//EN"
 "http://www.w3.org/TR/2001/REC-SVG-20010904/DTD/svg10.dtd">
<svg version="1.0" xmlns="http://www.w3.org/2000/svg"
 width="1000.000000pt" height="500.000000pt" viewBox="0 0 1000.000000 500.000000"
 preserveAspectRatio="xMidYMid meet">

<g transform="translate(0.000000,500.000000) scale(0.100000,-0.100000)"
fill="#000000" stroke="none">
<path d="M4945 4545 c-35 -34 -33 -79 5 -115 34 -31 42 -80 13 -80 -13 0 -692
133 -793 156 -18 4 -22 2 -14 -5 7 -8 4 -31 -12 -79 -13 -37 -84 -247 -158
-467 l-135 -400 -61 -5 -62 -5 29 -26 c45 -42 93 -65 178 -90 108 -30 324 -33
432 -6 79 21 168 69 191 105 14 21 13 22 -21 22 -20 0 -39 4 -42 10 -12 19
-315 923 -311 927 4 5 176 -44 616 -174 47 -14 101 -30 120 -35 63 -18 61 38
25 -578 -8 -146 -20 -353 -25 -460 -21 -422 -32 -576 -42 -603 -15 -40 -57
-58 -177 -73 -196 -25 -246 -40 -294 -87 l-42 -42 619 -3 c341 -1 621 0 623 2
8 8 -20 43 -53 65 -40 28 -113 46 -244 61 -206 24 -210 28 -221 222 -11 183
-46 838 -59 1078 -5 102 -12 231 -16 288 -5 83 -4 102 7 102 24 0 750 -148
756 -154 6 -6 -301 -934 -312 -945 -3 -3 -21 -4 -40 -3 -19 2 -35 -1 -35 -6 0
-17 57 -62 112 -87 155 -71 451 -73 605 -5 47 20 113 75 113 93 0 5 -23 7 -52
6 -37 -2 -54 1 -60 11 -4 8 -57 161 -117 340 -60 179 -127 379 -150 445 -22
66 -41 129 -41 141 0 18 -15 25 -112 53 -62 17 -149 42 -193 55 -44 14 -152
45 -240 71 -269 78 -255 72 -255 110 0 26 5 35 29 44 27 12 51 47 51 76 0 7
-12 27 -26 44 -33 39 -74 41 -109 6z m-765 -128 c0 -2 65 -196 145 -432 80
-235 145 -430 145 -432 0 -7 -590 -3 -590 5 -1 17 286 862 293 862 4 0 7 -1 7
-3z m1627 -434 c6 -21 70 -212 142 -425 72 -213 131 -393 131 -400 0 -10 -59
-13 -291 -11 -161 2 -294 4 -296 7 -2 2 5 25 15 52 11 27 77 221 147 432 70
210 130 382 134 382 4 0 12 -17 18 -37z"/>
<path d="M4072 4541 c-20 -12 -10 -45 14 -49 31 -4 49 22 29 42 -19 18 -25 19
-43 7z"/>
<path d="M5835 4100 c-16 -4 -22 -8 -13 -9 9 0 20 -10 23 -21 4 -13 15 -20 30
-20 29 0 38 13 30 40 -7 21 -20 23 -70 10z"/>
<path d="M4620 1870 c19 -19 20 -33 20 -273 0 -229 -2 -255 -17 -269 -10 -9
-25 -18 -33 -21 -8 -3 23 -5 70 -6 69 0 81 2 62 11 -30 15 -33 33 -30 163 l3
110 173 3 172 2 0 -123 c0 -124 -6 -148 -40 -160 -8 -3 23 -5 70 -6 59 0 78 3
63 9 -40 16 -43 39 -43 294 0 233 1 247 20 266 l20 20 -62 0 c-59 0 -60 -1
-45 -18 14 -15 17 -41 17 -146 l0 -126 -172 2 -173 3 -3 124 c-2 105 0 127 14
142 17 18 15 19 -44 19 l-62 0 20 -20z"/>
<path d="M3318 1592 c3 -242 2 -252 -18 -272 l-20 -20 56 0 c55 0 56 0 35 18
-21 16 -22 23 -19 214 l3 198 150 -160 c83 -88 175 -188 205 -221 l55 -61 -3
254 c-3 249 -3 253 19 270 21 18 20 18 -31 18 -51 0 -52 -1 -36 -19 14 -16 16
-42 14 -213 l-3 -196 -118 127 c-64 69 -156 168 -205 220 l-87 93 3 -250z"/>
<path d="M3880 1811 c0 -20 3 -22 12 -13 7 7 44 12 95 12 l83 0 0 -239 c0
-237 0 -240 -22 -255 -21 -15 -19 -16 47 -16 66 0 68 1 47 16 -22 15 -22 18
-22 255 l0 239 83 0 c51 0 88 -5 95 -12 9 -9 12 -7 12 12 l0 25 -215 0 -215 0
0 -24z"/>
<path d="M2710 1810 c19 -19 20 -33 20 -242 0 -123 -4 -228 -8 -234 -4 -6 -16
-16 -27 -23 -16 -9 13 -11 145 -8 154 3 168 5 215 29 94 49 134 119 135 233 0
87 -30 157 -86 203 -59 49 -117 62 -276 62 l-138 0 20 -20z m305 -19 c86 -39
130 -127 123 -245 -6 -90 -38 -153 -100 -194 -38 -25 -51 -27 -155 -31 l-113
-3 0 246 0 246 103 0 c77 0 112 -5 142 -19z"/>
<path d="M5282 1818 c14 -11 17 -42 20 -203 3 -157 6 -196 21 -222 69 -129
293 -134 364 -8 21 37 23 52 23 224 0 157 2 187 17 203 15 17 14 18 -32 18
-42 0 -46 -2 -31 -13 16 -11 17 -31 14 -209 -3 -180 -5 -199 -24 -224 -33 -45
-70 -67 -121 -71 -63 -7 -112 14 -149 63 l-29 37 -3 196 c-3 177 -2 197 14
208 15 11 9 13 -41 13 -49 0 -56 -2 -43 -12z"/>
<path d="M5890 1810 c19 -19 20 -33 20 -242 0 -123 -4 -228 -8 -234 -4 -6 -16
-16 -27 -22 -16 -9 -6 -11 55 -11 41 0 68 3 60 6 -37 13 -40 32 -40 264 0 224
0 228 22 243 21 15 19 16 -40 16 l-62 0 20 -20z"/>
<path d="M6159 1816 c9 -11 -7 -36 -75 -122 -48 -60 -91 -114 -95 -120 -8 -10
160 -222 198 -249 10 -7 41 -16 68 -19 28 -3 41 -3 30 0 -28 8 -54 34 -162
161 -61 74 -92 117 -87 125 22 36 191 221 209 229 14 5 2 8 -39 8 -48 1 -57
-1 -47 -13z"/>
<path d="M6362 1818 c14 -11 17 -42 20 -203 3 -157 6 -196 21 -222 69 -129
293 -134 364 -8 21 37 23 52 23 224 0 157 2 187 17 203 15 17 14 18 -32 18
-42 0 -46 -2 -31 -13 16 -11 17 -31 14 -209 -3 -180 -5 -199 -24 -224 -33 -45
-70 -67 -121 -71 -63 -7 -112 14 -149 63 l-29 37 -3 196 c-3 177 -2 197 14
208 15 11 9 13 -41 13 -49 0 -56 -2 -43 -12z"/>
<path d="M6970 1810 c19 -19 20 -33 20 -242 0 -123 -4 -228 -8 -234 -4 -6 -16
-16 -27 -22 -16 -9 -6 -11 55 -11 41 0 68 3 60 6 -37 13 -40 32 -40 264 0 224
0 228 22 243 21 15 19 16 -40 16 l-62 0 20 -20z"/>
<path d="M7239 1816 c9 -11 -7 -36 -75 -122 -48 -60 -91 -114 -95 -120 -8 -10
160 -222 198 -249 10 -7 41 -16 68 -19 28 -3 41 -3 30 0 -28 8 -54 34 -162
161 -61 74 -92 117 -87 125 22 36 191 221 209 229 14 5 2 8 -39 8 -48 1 -57
-1 -47 -13z"/>
<path d="M2458 1091 c10 -6 12 -41 10 -149 l-3 -142 30 1 c17 0 24 3 18 6 -9
3 -13 27 -13 69 l0 64 90 0 90 0 0 -58 c0 -32 -5 -63 -12 -70 -9 -9 -5 -12 20
-12 29 0 32 2 22 19 -5 11 -10 71 -10 135 0 91 3 118 16 130 14 15 12 16 -28
16 -34 -1 -39 -3 -25 -11 13 -8 17 -24 17 -74 l0 -65 -90 0 -90 0 0 65 c0 50
4 66 18 74 13 8 7 10 -28 11 -28 0 -40 -4 -32 -9z"/>
<path d="M2808 1088 c8 -8 12 -49 12 -119 0 -100 2 -110 25 -137 45 -53 141
-51 185 5 17 22 20 41 20 132 0 70 4 111 12 119 9 9 4 12 -22 11 -19 0 -29 -3
-22 -6 8 -3 12 -37 12 -118 0 -104 -2 -116 -22 -140 -14 -15 -38 -28 -59 -31
-31 -5 -42 -1 -70 24 l-34 30 -3 107 c-3 73 0 110 8 120 11 13 7 15 -21 15
-26 0 -30 -3 -21 -12z"/>
<path d="M3143 1089 c15 -9 17 -27 17 -137 0 -86 -4 -132 -12 -140 -9 -9 -5
-12 20 -12 29 0 32 2 22 19 -5 11 -10 71 -10 135 0 91 3 118 16 130 14 15 12
16 -28 16 -34 -1 -39 -3 -25 -11z"/>
<path d="M3296 1087 c2 -8 -18 -42 -46 -76 l-50 -63 32 -40 c55 -70 95 -108
112 -108 12 0 -3 23 -48 77 -36 42 -66 79 -66 82 0 3 28 36 63 74 l63 67 -33
0 c-23 0 -31 -4 -27 -13z"/>
<path d="M3430 1081 c5 -11 10 -67 10 -126 0 -98 2 -108 24 -130 50 -50 151
-40 187 19 15 25 19 50 19 138 0 76 4 108 13 111 6 3 -4 5 -23 5 -19 0 -29 -2
-22 -5 16 -6 17 -202 0 -238 -12 -27 -54 -55 -83 -55 -29 0 -71 28 -83 55 -16
35 -16 217 0 233 9 9 5 12 -20 12 -29 0 -32 -2 -22 -19z"/>
<path d="M3764 1084 c13 -12 16 -39 16 -130 0 -64 -5 -124 -10 -135 -10 -17
-7 -19 22 -19 25 0 29 3 20 12 -8 8 -12 54 -12 140 0 110 2 128 18 137 13 8 8
10 -26 11 -39 0 -42 -1 -28 -16z"/>
<path d="M3915 1090 c4 -6 -17 -40 -45 -76 l-51 -65 28 -37 c54 -72 96 -112
115 -112 14 0 4 17 -47 75 -36 41 -65 79 -65 84 0 4 28 38 63 75 l62 66 -33 0
c-20 0 -31 -4 -27 -10z"/>
<path d="M4179 1079 c-16 -16 -20 -30 -17 -62 4 -34 0 -48 -20 -71 -19 -24
-23 -37 -18 -65 6 -43 46 -81 84 -81 27 1 27 1 -6 15 -48 21 -68 89 -38 130
14 19 15 19 38 -5 13 -14 45 -44 71 -67 l48 -42 -28 -15 c-24 -13 -25 -15 -7
-16 11 0 25 5 30 10 8 8 19 8 38 0 46 -17 64 -12 29 9 -29 18 -31 23 -27 63 3
24 7 51 9 61 2 12 -3 17 -22 17 -21 0 -23 -3 -14 -14 7 -8 11 -32 9 -53 l-3
-38 -74 71 c-61 58 -74 77 -74 102 0 45 19 64 62 60 26 -2 39 -10 48 -28 11
-22 13 -23 13 -4 0 31 -20 44 -67 44 -30 0 -49 -6 -64 -21z"/>
<path d="M4543 1086 c14 -14 17 -38 17 -132 0 -64 -5 -124 -10 -135 -10 -18
-7 -19 77 -19 70 0 95 4 121 20 67 41 91 128 54 199 -31 62 -60 75 -174 79
-96 4 -101 3 -85 -12z m177 -14 c49 -24 72 -73 67 -141 -3 -47 -9 -59 -40 -88
-34 -30 -42 -33 -102 -33 l-65 0 0 140 0 140 53 0 c29 0 67 -8 87 -18z"/>
<path d="M4971 1079 c-37 -98 -106 -253 -118 -265 -13 -12 -11 -14 16 -14 22
0 29 4 25 14 -3 7 2 30 10 50 15 36 16 36 74 36 l59 0 16 -41 c9 -23 14 -46
11 -50 -3 -5 8 -9 25 -9 l30 0 -18 33 c-11 17 -40 84 -66 147 -26 63 -49 117
-51 119 -2 2 -8 -7 -13 -20z m38 -102 c11 -32 21 -60 21 -62 0 -3 -22 -5 -50
-5 -27 0 -50 3 -50 8 0 20 45 130 51 124 4 -4 16 -33 28 -65z"/>
<path d="M5188 952 c-3 -130 -1 -152 12 -152 13 0 15 19 12 121 l-3 122 78
-84 c44 -46 97 -103 119 -127 l39 -43 -3 139 c-3 119 -1 142 13 156 15 15 14
16 -20 16 -33 0 -35 -1 -21 -16 13 -12 16 -38 15 -122 l0 -107 -119 124 -119
125 -3 -152z"/>
<path d="M5544 1084 c13 -12 16 -39 16 -130 0 -64 -5 -124 -10 -135 -10 -17
-7 -19 22 -19 25 0 29 3 20 12 -8 8 -12 54 -12 140 0 110 2 128 18 137 13 8 8
10 -26 11 -39 0 -42 -1 -28 -16z"/>
<path d="M5697 1082 c-10 -10 -17 -34 -17 -54 0 -30 8 -43 60 -91 33 -30 60
-62 60 -71 0 -21 -44 -66 -65 -66 -9 0 -27 11 -40 25 -24 23 -25 23 -25 4 0
-13 10 -24 31 -31 20 -7 28 -15 25 -25 -3 -8 -2 -12 3 -9 5 3 14 -1 20 -8 10
-11 7 -18 -11 -30 -17 -12 -19 -16 -6 -16 23 0 48 28 42 45 -4 8 -12 15 -20
15 -24 0 -15 19 11 26 33 8 55 40 55 78 0 24 -12 42 -60 86 -61 57 -75 91 -48
118 15 15 61 15 76 0 9 -9 12 -8 12 5 0 25 -81 24 -103 -1z"/>
<path d="M5911 978 c-7 -68 -19 -135 -26 -150 -13 -26 -12 -28 8 -28 21 0 22
6 25 84 6 154 10 155 72 23 l53 -116 22 52 c49 117 78 177 85 177 9 0 24 -196
15 -210 -4 -6 6 -10 26 -10 24 0 29 3 21 13 -6 6 -18 73 -27 147 -9 74 -17
136 -19 137 -1 1 -26 -52 -56 -118 -29 -66 -56 -122 -60 -124 -4 -2 -30 49
-60 113 -29 64 -56 121 -60 125 -4 4 -13 -47 -19 -115z"/>
<path d="M6345 965 c-32 -75 -64 -143 -72 -151 -12 -12 -10 -14 16 -14 22 0
29 4 25 14 -3 7 2 30 10 50 15 36 16 36 74 36 l60 0 16 -41 c9 -22 14 -45 11
-50 -4 -5 7 -9 24 -9 l30 0 -18 33 c-11 17 -40 84 -66 147 -26 63 -48 116 -50
118 -1 2 -29 -58 -60 -133z m80 23 c10 -29 20 -59 23 -65 3 -9 -10 -13 -47
-13 -28 0 -51 4 -51 9 0 17 43 121 49 121 4 0 15 -24 26 -52z"/>
<path d="M6608 952 c-3 -130 -1 -152 12 -152 13 0 15 19 12 121 l-3 121 84
-88 c46 -49 99 -106 118 -127 l34 -38 -3 139 c-3 119 -1 142 13 156 15 15 14
16 -20 16 -33 0 -35 -1 -21 -16 13 -12 16 -38 15 -122 l0 -107 -119 125 -119
124 -3 -152z"/>
<path d="M6964 1084 c13 -12 16 -39 16 -130 0 -64 -5 -124 -11 -135 -10 -19
-7 -20 72 -17 77 3 82 5 91 28 l9 24 -24 -22 c-17 -16 -35 -22 -70 -22 l-47 0
0 133 c0 90 4 137 12 145 9 9 4 12 -26 12 -34 0 -36 -1 -22 -16z"/>
<path d="M7193 1089 c15 -9 17 -27 17 -144 0 -97 -3 -135 -12 -138 -7 -3 1 -6
17 -6 l30 -1 -3 137 c-3 121 -1 139 14 150 15 11 11 13 -32 13 -38 -1 -45 -3
-31 -11z"/>
<path d="M7344 1084 c13 -12 16 -40 16 -138 0 -81 -4 -126 -12 -134 -9 -9 -4
-12 22 -12 26 0 31 3 22 12 -8 8 -12 53 -12 134 0 98 3 126 16 138 14 15 12
16 -26 16 -38 0 -40 -1 -26 -16z"/>
<path d="M7495 1088 c3 -7 -17 -42 -45 -77 l-49 -64 31 -40 c55 -69 95 -107
112 -107 12 0 -3 23 -48 77 -36 42 -66 79 -66 83 0 3 28 36 63 73 l62 67 -32
0 c-22 0 -31 -4 -28 -12z"/>
<path d="M2187 923 c18 -2 50 -2 70 0 21 2 7 4 -32 4 -38 0 -55 -2 -38 -4z"/>
<path d="M7737 923 c18 -2 50 -2 70 0 21 2 7 4 -32 4 -38 0 -55 -2 -38 -4z"/>
</g>
</svg>
