<?xml version="1.0" standalone="no"?>
<!DOCTYPE svg PUBLIC "-//W3C//DTD SVG 20010904//EN"
 "http://www.w3.org/TR/2001/REC-SVG-20010904/DTD/svg10.dtd">
<svg version="1.0" xmlns="http://www.w3.org/2000/svg"
 width="621.000000pt" height="359.000000pt" viewBox="0 0 621.000000 359.000000"
 preserveAspectRatio="xMidYMid meet">

<g transform="translate(0.000000,359.000000) scale(0.100000,-0.100000)"
fill="#5c5c5c" stroke="none">
<path d="M2680 2877 c0 -13 4 -27 8 -32 5 -6 -23 -98 -66 -212 -61 -165 -78
-203 -93 -203 -24 0 -24 -11 1 -43 42 -53 191 -77 293 -48 71 20 139 91 88 91
-12 0 -23 11 -29 28 -5 15 -38 103 -71 196 -34 92 -61 172 -59 177 2 4 68 -30
148 -76 103 -60 147 -91 152 -107 11 -39 9 -708 -2 -708 -5 0 -10 -9 -10 -20
0 -17 -7 -20 -45 -20 -62 0 -104 -23 -112 -60 -4 -25 -10 -30 -34 -30 -26 0
-29 -4 -29 -30 l0 -30 275 0 275 0 0 30 c0 27 -3 30 -30 30 -19 0 -30 5 -30
14 0 8 -10 27 -23 42 -19 22 -34 28 -80 32 -47 4 -57 8 -57 23 0 11 -7 19 -15
19 -13 0 -15 45 -15 344 l0 345 141 -81 c92 -53 145 -90 153 -107 12 -24 9
-39 -35 -161 -96 -263 -99 -270 -120 -270 -24 0 -24 -11 1 -43 65 -83 315 -83
380 0 25 32 25 43 1 43 -12 0 -23 11 -29 28 -5 15 -38 103 -71 196 -43 117
-59 172 -51 180 18 18 12 39 -10 33 -12 -3 -21 1 -25 12 -2 9 -75 57 -160 106
-149 87 -155 91 -155 123 0 17 -5 32 -10 32 -7 0 -7 6 -1 18 7 14 4 34 -11 75
-11 31 -24 55 -28 52 -3 -2 -15 -29 -25 -59 -15 -43 -16 -58 -7 -69 10 -12 10
-16 -2 -20 -8 -3 -81 33 -162 80 -91 52 -150 81 -152 73 -3 -7 -10 -3 -19 9
-19 28 -43 27 -43 -2z m26 -444 c-2 -2 -33 -3 -68 -1 l-65 3 66 182 66 183 3
-182 c1 -99 1 -183 -2 -185z m132 80 l31 -83 -70 0 -69 0 1 188 0 187 39 -105
c21 -58 52 -142 68 -187z m730 -420 l31 -83 -70 0 -69 0 1 188 0 187 39 -105
c21 -58 52 -142 68 -187z m-128 97 l0 -180 -65 0 c-36 0 -65 3 -65 8 0 9 123
352 127 352 2 0 3 -81 3 -180z"/>
<path d="M2150 1460 c0 -153 -2 -174 -17 -186 -16 -12 -11 -13 36 -14 52 0 53
0 32 18 -20 16 -22 24 -19 140 l3 122 130 -140 c71 -77 132 -140 135 -140 3 0
4 74 2 164 -3 161 -3 164 20 180 22 16 21 16 -32 16 -42 -1 -51 -3 -37 -11 15
-9 17 -26 17 -137 l0 -127 -47 50 c-26 28 -87 92 -135 144 l-88 93 0 -172z"/>
<path d="M2521 1590 c0 -31 1 -32 9 -12 8 19 17 22 65 22 l55 0 0 -154 c0
-148 -1 -154 -22 -169 -22 -15 -20 -16 37 -16 52 0 58 1 43 13 -16 12 -18 32
-18 170 l0 156 50 0 c36 0 52 -4 56 -15 8 -20 23 -10 19 13 -2 9 -4 19 -4 22
-1 3 -66 5 -146 5 l-145 0 1 -35z"/>
<path d="M3010 1610 c18 -18 20 -33 20 -160 0 -130 -1 -141 -22 -160 l-22 -20
59 0 59 0 -22 20 c-18 17 -22 32 -22 85 l0 65 100 0 100 0 0 -71 c0 -57 -4
-75 -17 -85 -16 -12 -10 -13 42 -13 57 0 59 1 38 16 -22 15 -23 21 -23 164 0
141 1 149 22 163 21 15 20 16 -37 16 -46 -1 -56 -3 -42 -11 14 -8 17 -24 17
-84 l0 -75 -100 0 -100 0 0 69 c0 61 3 72 22 85 21 15 20 16 -35 16 l-57 0 20
-20z"/>
<path d="M1743 1609 c15 -9 17 -28 17 -166 0 -137 -2 -157 -17 -169 -15 -11
-5 -13 72 -13 50 0 108 4 129 9 98 22 152 109 132 215 -9 48 -68 112 -114 125
-50 14 -243 13 -219 -1z m217 -27 c49 -24 75 -74 74 -142 0 -105 -47 -149
-166 -158 l-68 -5 0 162 0 161 63 0 c39 0 75 -6 97 -18z"/>
<path d="M3386 1572 c7 -4 13 -52 16 -117 2 -60 10 -120 17 -132 17 -33 63
-53 120 -53 42 0 56 5 83 29 l33 29 3 114 c3 90 7 116 20 126 13 10 8 12 -34
12 -38 -1 -45 -3 -31 -11 14 -9 17 -26 17 -120 0 -103 -1 -111 -25 -134 -18
-19 -35 -25 -67 -25 -79 1 -98 35 -98 175 0 79 3 96 18 104 13 8 6 10 -33 11
-27 0 -45 -4 -39 -8z"/>
<path d="M3748 1564 c21 -14 22 -22 22 -140 0 -102 -3 -126 -15 -130 -32 -12
-13 -24 38 -23 50 0 51 1 30 16 -22 15 -23 22 -23 139 0 116 1 124 22 138 21
15 20 16 -37 16 -57 0 -58 -1 -37 -16z"/>
<path d="M3916 1565 c4 -9 -14 -38 -45 -74 -28 -32 -51 -63 -51 -68 0 -5 30
-39 68 -76 48 -47 77 -68 102 -73 l35 -7 -42 37 c-22 20 -60 59 -83 87 l-43
50 49 51 c27 28 63 59 79 69 l30 19 -52 0 c-42 0 -51 -3 -47 -15z"/>
<path d="M4053 1569 c14 -8 17 -26 17 -115 0 -151 24 -184 131 -184 45 0 55 4
85 34 l34 34 0 111 c0 94 3 111 18 120 13 8 6 10 -33 10 -39 0 -46 -2 -32 -10
14 -9 17 -26 17 -120 0 -103 -1 -111 -25 -134 -35 -36 -102 -35 -136 1 -22 24
-24 33 -24 135 0 87 3 112 15 119 11 7 0 10 -35 10 -39 -1 -46 -3 -32 -11z"/>
<path d="M4400 1573 c27 -10 30 -26 30 -151 0 -100 -3 -124 -15 -128 -31 -12
-13 -24 38 -24 45 1 50 2 35 14 -16 11 -18 31 -18 144 0 114 2 132 18 141 13
8 2 10 -43 10 -33 0 -53 -3 -45 -6z"/>
<path d="M4579 1571 c12 -8 3 -23 -42 -76 l-57 -67 29 -36 c53 -67 106 -111
139 -118 33 -7 47 10 14 18 -9 3 -45 37 -80 75 l-62 71 52 57 c29 32 66 64 83
71 29 13 28 13 -30 13 -40 1 -55 -2 -46 -8z"/>
<path d="M2030 1015 c0 -58 2 -65 20 -65 15 0 20 7 20 25 0 20 5 25 25 25 20
0 25 -5 25 -25 0 -18 5 -25 20 -25 18 0 20 7 20 65 0 58 -2 65 -20 65 -15 0
-20 -7 -20 -25 0 -20 -5 -25 -25 -25 -20 0 -25 5 -25 25 0 18 -5 25 -20 25
-18 0 -20 -7 -20 -65z"/>
<path d="M2182 1028 c6 -62 36 -93 77 -83 37 9 51 32 51 87 0 41 -3 48 -20 48
-17 0 -20 -7 -20 -51 0 -47 -2 -50 -22 -47 -20 3 -23 10 -26 51 -3 40 -6 47
-24 47 -19 0 -20 -4 -16 -52z"/>
<path d="M2330 1015 c0 -58 2 -65 20 -65 13 0 20 7 20 20 0 11 4 20 8 20 5 0
17 -9 27 -20 10 -11 27 -20 38 -20 18 0 17 3 -8 36 l-27 36 28 29 c24 25 25
29 9 29 -10 0 -32 -12 -47 -27 l-28 -27 0 27 c0 20 -5 27 -20 27 -18 0 -20 -7
-20 -65z"/>
<path d="M2472 1023 c3 -52 6 -59 31 -71 22 -11 32 -11 55 0 24 12 27 19 30
71 2 45 0 57 -12 57 -11 0 -16 -13 -18 -47 -2 -37 -7 -49 -22 -51 -24 -5 -36
14 -36 61 0 27 -4 37 -15 37 -13 0 -15 -11 -13 -57z"/>
<path d="M2620 1015 c0 -51 3 -65 15 -65 8 0 15 6 15 14 0 25 21 29 36 7 14
-19 54 -30 54 -15 0 3 -11 20 -26 36 l-25 31 27 28 c24 25 25 29 9 29 -10 0
-32 -12 -47 -27 l-28 -27 0 27 c0 17 -5 27 -15 27 -12 0 -15 -14 -15 -65z"/>
<path d="M2824 1065 c-4 -8 -4 -21 -1 -29 3 -8 -1 -20 -9 -26 -37 -31 9 -80
60 -63 11 4 28 7 35 7 10 1 15 12 15 31 0 25 -4 30 -22 28 -24 -3 -28 7 -11
24 7 7 9 19 6 27 -8 21 -66 21 -73 1z m46 -15 c0 -5 -4 -10 -10 -10 -5 0 -10
5 -10 10 0 6 5 10 10 10 6 0 10 -4 10 -10z m-5 -61 c10 -15 -1 -23 -20 -15 -9
3 -13 10 -10 16 8 13 22 13 30 -1z"/>
<path d="M3000 1015 l0 -65 48 0 c57 0 82 20 82 67 0 42 -27 63 -83 63 l-47 0
0 -65z m90 20 c20 -24 3 -55 -31 -55 -27 0 -29 3 -29 35 0 30 3 35 24 35 13 0
29 -7 36 -15z"/>
<path d="M3166 1024 c-14 -31 -26 -60 -26 -65 0 -12 27 -11 35 1 9 14 51 13
75 -2 31 -20 32 -4 4 61 -35 79 -54 81 -88 5z m54 -9 c0 -8 -7 -15 -15 -15 -9
0 -12 6 -9 15 4 8 10 15 15 15 5 0 9 -7 9 -15z"/>
<path d="M3290 1015 c0 -58 2 -65 20 -65 16 0 20 7 20 33 l1 32 28 -32 c45
-53 61 -45 61 32 0 58 -2 65 -20 65 -16 0 -20 -7 -20 -32 l-1 -33 -28 33 c-45
52 -61 44 -61 -33z"/>
<path d="M3440 1015 c0 -58 2 -65 20 -65 18 0 20 7 20 65 0 58 -2 65 -20 65
-18 0 -20 -7 -20 -65z"/>
<path d="M3512 1068 c-23 -23 -13 -48 23 -64 42 -17 38 -36 -5 -27 -23 4 -30
2 -30 -10 0 -8 12 -17 28 -20 70 -14 111 58 45 78 -41 12 -43 25 -3 25 20 0
30 5 30 15 0 19 -70 21 -88 3z"/>
<path d="M3626 1027 c2 -75 3 -77 19 -77 10 0 15 10 15 33 l1 32 15 -27 c18
-34 27 -35 47 -5 l16 22 0 -27 c1 -21 6 -28 21 -28 18 0 20 7 20 65 0 55 -3
65 -17 65 -10 0 -28 -17 -39 -38 l-22 -37 -22 38 c-12 20 -29 37 -38 37 -14 0
-17 -10 -16 -53z"/>
<path d="M3820 1028 c-12 -29 -24 -59 -27 -65 -3 -8 3 -13 16 -13 12 0 21 5
21 10 0 14 53 13 67 -1 6 -6 17 -9 25 -7 12 2 10 15 -13 66 -36 81 -57 83 -89
10z m48 -27 c-15 -5 -19 4 -11 24 6 18 7 18 13 -1 4 -10 3 -21 -2 -23z"/>
<path d="M3950 1015 c0 -51 3 -65 15 -65 11 0 15 11 15 37 l0 38 31 -38 c46
-56 59 -50 59 28 0 51 -3 65 -15 65 -11 0 -15 -11 -15 -37 l0 -38 -31 38 c-46
56 -59 50 -59 -28z"/>
<path d="M4100 1015 l0 -65 50 0 c38 0 50 4 50 15 0 10 -11 15 -35 15 l-35 0
0 50 c0 38 -4 50 -15 50 -12 0 -15 -14 -15 -65z"/>
<path d="M4210 1015 c0 -58 2 -65 20 -65 18 0 20 7 20 65 0 58 -2 65 -20 65
-18 0 -20 -7 -20 -65z"/>
<path d="M4270 1015 c0 -58 2 -65 20 -65 13 0 20 7 20 20 0 11 4 20 8 20 5 0
17 -9 27 -20 10 -11 27 -20 38 -20 18 0 17 3 -8 36 l-27 36 28 29 c24 25 25
29 9 29 -10 0 -32 -12 -47 -27 l-28 -27 0 27 c0 20 -5 27 -20 27 -18 0 -20 -7
-20 -65z"/>
<path d="M1650 1020 l0 -30 100 0 100 0 0 30 0 30 -100 0 -100 0 0 -30z"/>
<path d="M4500 1000 l0 -30 100 0 100 0 0 30 0 30 -100 0 -100 0 0 -30z"/>
</g>
</svg>
