<?xml version="1.0" standalone="no"?>
<!DOCTYPE svg PUBLIC "-//W3C//DTD SVG 20010904//EN"
 "http://www.w3.org/TR/2001/REC-SVG-20010904/DTD/svg10.dtd">
<svg version="1.0" xmlns="http://www.w3.org/2000/svg"
 width="1000.000000pt" height="500.000000pt" viewBox="0 0 1000.000000 500.000000"
 preserveAspectRatio="xMidYMid meet">

<g transform="translate(0.000000,500.000000) scale(0.100000,-0.100000)"
fill="#000000" stroke="none">
<path d="M2140 3888 c-14 -7 -33 -30 -44 -51 -16 -34 -17 -42 -4 -75 8 -21 28
-46 46 -57 26 -17 31 -26 32 -57 0 -21 -4 -38 -8 -38 -5 0 -255 50 -557 110
-301 61 -549 110 -551 110 -2 0 -4 7 -4 15 0 38 -69 38 -84 0 -16 -42 39 -72
74 -40 17 16 60 10 60 -9 0 -6 -91 -284 -202 -618 l-203 -607 -80 -3 -80 -3
44 -44 c88 -87 246 -138 457 -148 279 -13 502 49 582 160 l22 32 -52 5 -53 5
-203 605 c-111 332 -201 607 -200 610 3 7 1009 -288 1020 -298 3 -4 -20 -481
-52 -1060 -63 -1145 -56 -1084 -120 -1117 -17 -9 -79 -22 -138 -31 -256 -35
-297 -44 -362 -76 -41 -21 -73 -46 -88 -68 l-23 -35 807 -3 c444 -1 810 0 812
3 10 10 -34 60 -80 91 -51 35 -136 55 -328 79 -173 22 -220 40 -250 96 -10 18
-126 2096 -118 2105 7 6 979 -186 990 -195 4 -4 -85 -284 -198 -624 l-206
-617 -54 0 c-30 0 -54 -4 -54 -9 0 -19 87 -85 154 -117 111 -52 213 -69 411
-68 195 0 303 21 407 76 53 28 118 89 118 110 0 5 -31 8 -69 8 l-69 0 -50 148
c-219 649 -362 1076 -362 1082 0 4 14 5 30 2 21 -3 30 -10 30 -23 0 -11 11
-24 25 -31 22 -10 29 -9 47 10 19 18 20 25 10 47 -12 27 -49 34 -69 14 -8 -8
-146 29 -510 136 -669 196 -593 168 -593 218 0 37 4 44 33 57 46 21 72 79 57
124 -6 18 -19 41 -30 51 -24 22 -89 29 -120 13z m-830 -748 c104 -311 190
-566 190 -567 0 -2 -173 -3 -384 -3 l-384 0 190 571 c104 313 192 569 194 567
2 -2 89 -258 194 -568z m2104 -528 c102 -305 186 -558 186 -563 0 -11 -760
-12 -760 -1 -1 19 376 1130 381 1124 3 -4 90 -256 193 -560z"/>
<path d="M6510 3070 c19 -19 20 -33 20 -273 0 -229 -2 -255 -17 -269 -10 -9
-25 -18 -33 -21 -8 -3 23 -5 70 -6 69 0 81 2 62 11 -30 15 -33 33 -30 163 l3
110 173 3 172 2 0 -123 c0 -124 -6 -148 -40 -160 -8 -3 23 -5 70 -6 59 0 78 3
63 9 -40 16 -43 39 -43 294 0 233 1 247 20 266 l20 20 -62 0 c-59 0 -60 -1
-45 -18 14 -15 17 -41 17 -146 l0 -126 -172 2 -173 3 -3 124 c-2 105 0 127 14
142 17 18 15 19 -44 19 l-62 0 20 -20z"/>
<path d="M5208 2792 c3 -242 2 -252 -18 -272 l-20 -20 56 0 c55 0 56 0 35 18
-21 16 -22 23 -19 214 l3 198 150 -160 c83 -88 175 -188 205 -221 l55 -61 -3
254 c-3 249 -3 253 19 270 21 18 20 18 -31 18 -51 0 -52 -1 -36 -19 14 -16 16
-42 14 -213 l-3 -196 -118 127 c-64 69 -156 168 -205 220 l-87 93 3 -250z"/>
<path d="M5770 3011 c0 -20 3 -22 12 -13 7 7 44 12 95 12 l83 0 0 -239 c0
-237 0 -240 -22 -255 -21 -15 -19 -16 47 -16 66 0 68 1 47 16 -22 15 -22 18
-22 255 l0 239 83 0 c51 0 88 -5 95 -12 9 -9 12 -7 12 12 l0 25 -215 0 -215 0
0 -24z"/>
<path d="M4600 3010 c19 -19 20 -33 20 -242 0 -123 -4 -228 -8 -234 -4 -6 -16
-16 -27 -23 -16 -9 13 -11 145 -8 154 3 168 5 215 29 94 49 134 119 135 233 0
87 -30 157 -86 203 -59 49 -117 62 -276 62 l-138 0 20 -20z m305 -19 c86 -39
130 -127 123 -245 -6 -90 -38 -153 -100 -194 -38 -25 -51 -27 -155 -31 l-113
-3 0 246 0 246 103 0 c77 0 112 -5 142 -19z"/>
<path d="M7172 3018 c14 -11 17 -42 20 -203 3 -157 6 -196 21 -222 69 -129
293 -134 364 -8 21 37 23 52 23 224 0 157 2 187 17 203 15 17 14 18 -32 18
-42 0 -46 -2 -31 -13 16 -11 17 -31 14 -209 -3 -180 -5 -199 -24 -224 -33 -45
-70 -67 -121 -71 -63 -7 -112 14 -149 63 l-29 37 -3 196 c-3 177 -2 197 14
208 15 11 9 13 -41 13 -49 0 -56 -2 -43 -12z"/>
<path d="M7780 3010 c19 -19 20 -33 20 -242 0 -123 -4 -228 -8 -234 -4 -6 -16
-16 -27 -22 -16 -9 -6 -11 55 -11 41 0 68 3 60 6 -37 13 -40 32 -40 264 0 224
0 228 22 243 21 15 19 16 -40 16 l-62 0 20 -20z"/>
<path d="M8049 3016 c9 -11 -7 -36 -75 -122 -48 -60 -91 -114 -95 -120 -8 -10
160 -222 198 -249 10 -7 41 -16 68 -19 28 -3 41 -3 30 0 -28 8 -54 34 -162
161 -61 74 -92 117 -87 125 22 36 191 221 209 229 14 5 2 8 -39 8 -48 1 -57
-1 -47 -13z"/>
<path d="M8252 3018 c14 -11 17 -42 20 -203 3 -157 6 -196 21 -222 69 -129
293 -134 364 -8 21 37 23 52 23 224 0 157 2 187 17 203 15 17 14 18 -32 18
-42 0 -46 -2 -31 -13 16 -11 17 -31 14 -209 -3 -180 -5 -199 -24 -224 -33 -45
-70 -67 -121 -71 -63 -7 -112 14 -149 63 l-29 37 -3 196 c-3 177 -2 197 14
208 15 11 9 13 -41 13 -49 0 -56 -2 -43 -12z"/>
<path d="M8860 3010 c19 -19 20 -33 20 -242 0 -123 -4 -228 -8 -234 -4 -6 -16
-16 -27 -22 -16 -9 -6 -11 55 -11 41 0 68 3 60 6 -37 13 -40 32 -40 264 0 224
0 228 22 243 21 15 19 16 -40 16 l-62 0 20 -20z"/>
<path d="M9129 3016 c9 -11 -7 -36 -75 -122 -48 -60 -91 -114 -95 -120 -8 -10
160 -222 198 -249 10 -7 41 -16 68 -19 28 -3 41 -3 30 0 -28 8 -54 34 -162
161 -61 74 -92 117 -87 125 22 36 191 221 209 229 14 5 2 8 -39 8 -48 1 -57
-1 -47 -13z"/>
<path d="M4348 2291 c10 -6 12 -41 10 -149 l-3 -142 30 1 c17 0 24 3 18 6 -9
3 -13 27 -13 69 l0 64 90 0 90 0 0 -58 c0 -32 -5 -63 -12 -70 -9 -9 -5 -12 20
-12 29 0 32 2 22 19 -5 11 -10 71 -10 135 0 91 3 118 16 130 14 15 12 16 -28
16 -34 -1 -39 -3 -25 -11 13 -8 17 -24 17 -74 l0 -65 -90 0 -90 0 0 65 c0 50
4 66 18 74 13 8 7 10 -28 11 -28 0 -40 -4 -32 -9z"/>
<path d="M4698 2288 c8 -8 12 -49 12 -119 0 -100 2 -110 25 -137 45 -53 141
-51 185 5 17 22 20 41 20 132 0 70 4 111 12 119 9 9 4 12 -22 11 -19 0 -29 -3
-22 -6 8 -3 12 -37 12 -118 0 -104 -2 -116 -22 -140 -14 -15 -38 -28 -59 -31
-31 -5 -42 -1 -70 24 l-34 30 -3 107 c-3 73 0 110 8 120 11 13 7 15 -21 15
-26 0 -30 -3 -21 -12z"/>
<path d="M5033 2289 c15 -9 17 -27 17 -137 0 -86 -4 -132 -12 -140 -9 -9 -5
-12 20 -12 29 0 32 2 22 19 -5 11 -10 71 -10 135 0 91 3 118 16 130 14 15 12
16 -28 16 -34 -1 -39 -3 -25 -11z"/>
<path d="M5186 2287 c2 -8 -18 -42 -46 -76 l-50 -63 32 -40 c55 -70 95 -108
112 -108 12 0 -3 23 -48 77 -36 42 -66 79 -66 82 0 3 28 36 63 74 l63 67 -33
0 c-23 0 -31 -4 -27 -13z"/>
<path d="M5320 2281 c5 -11 10 -67 10 -126 0 -98 2 -108 24 -130 50 -50 151
-40 187 19 15 25 19 50 19 138 0 76 4 108 13 111 6 3 -4 5 -23 5 -19 0 -29 -2
-22 -5 16 -6 17 -202 0 -238 -12 -27 -54 -55 -83 -55 -29 0 -71 28 -83 55 -16
35 -16 217 0 233 9 9 5 12 -20 12 -29 0 -32 -2 -22 -19z"/>
<path d="M5654 2284 c13 -12 16 -39 16 -130 0 -64 -5 -124 -10 -135 -10 -17
-7 -19 22 -19 25 0 29 3 20 12 -8 8 -12 54 -12 140 0 110 2 128 18 137 13 8 8
10 -26 11 -39 0 -42 -1 -28 -16z"/>
<path d="M5805 2290 c4 -6 -17 -40 -45 -76 l-51 -65 28 -37 c54 -72 96 -112
115 -112 14 0 4 17 -47 75 -36 41 -65 79 -65 84 0 4 28 38 63 75 l62 66 -33 0
c-20 0 -31 -4 -27 -10z"/>
<path d="M6069 2279 c-16 -16 -20 -30 -17 -62 4 -34 0 -48 -20 -71 -19 -24
-23 -37 -18 -65 6 -43 46 -81 84 -81 27 1 27 1 -6 15 -48 21 -68 89 -38 130
14 19 15 19 38 -5 13 -14 45 -44 71 -67 l48 -42 -28 -15 c-24 -13 -25 -15 -7
-16 11 0 25 5 30 10 8 8 19 8 38 0 46 -17 64 -12 29 9 -29 18 -31 23 -27 63 3
24 7 51 9 61 2 12 -3 17 -22 17 -21 0 -23 -3 -14 -14 7 -8 11 -32 9 -53 l-3
-38 -74 71 c-61 58 -74 77 -74 102 0 45 19 64 62 60 26 -2 39 -10 48 -28 11
-22 13 -23 13 -4 0 31 -20 44 -67 44 -30 0 -49 -6 -64 -21z"/>
<path d="M6433 2286 c14 -14 17 -38 17 -132 0 -64 -5 -124 -10 -135 -10 -18
-7 -19 77 -19 70 0 95 4 121 20 67 41 91 128 54 199 -31 62 -60 75 -174 79
-96 4 -101 3 -85 -12z m177 -14 c49 -24 72 -73 67 -141 -3 -47 -9 -59 -40 -88
-34 -30 -42 -33 -102 -33 l-65 0 0 140 0 140 53 0 c29 0 67 -8 87 -18z"/>
<path d="M6861 2279 c-37 -98 -106 -253 -118 -265 -13 -12 -11 -14 16 -14 22
0 29 4 25 14 -3 7 2 30 10 50 15 36 16 36 74 36 l59 0 16 -41 c9 -23 14 -46
11 -50 -3 -5 8 -9 25 -9 l30 0 -18 33 c-11 17 -40 84 -66 147 -26 63 -49 117
-51 119 -2 2 -8 -7 -13 -20z m38 -102 c11 -32 21 -60 21 -62 0 -3 -22 -5 -50
-5 -27 0 -50 3 -50 8 0 20 45 130 51 124 4 -4 16 -33 28 -65z"/>
<path d="M7078 2152 c-3 -130 -1 -152 12 -152 13 0 15 19 12 121 l-3 122 78
-84 c44 -46 97 -103 119 -127 l39 -43 -3 139 c-3 119 -1 142 13 156 15 15 14
16 -20 16 -33 0 -35 -1 -21 -16 13 -12 16 -38 15 -122 l0 -107 -119 124 -119
125 -3 -152z"/>
<path d="M7434 2284 c13 -12 16 -39 16 -130 0 -64 -5 -124 -10 -135 -10 -17
-7 -19 22 -19 25 0 29 3 20 12 -8 8 -12 54 -12 140 0 110 2 128 18 137 13 8 8
10 -26 11 -39 0 -42 -1 -28 -16z"/>
<path d="M7587 2282 c-10 -10 -17 -34 -17 -54 0 -30 8 -43 60 -91 33 -30 60
-62 60 -71 0 -21 -44 -66 -65 -66 -9 0 -27 11 -40 25 -24 23 -25 23 -25 4 0
-13 10 -24 31 -31 20 -7 28 -15 25 -25 -3 -8 -2 -12 3 -9 5 3 14 -1 20 -8 10
-11 7 -18 -11 -30 -17 -12 -19 -16 -6 -16 23 0 48 28 42 45 -4 8 -12 15 -20
15 -24 0 -15 19 11 26 33 8 55 40 55 78 0 24 -12 42 -60 86 -43 40 -60 63 -60
81 0 32 17 49 50 49 14 0 31 -5 38 -12 9 -9 12 -8 12 5 0 25 -81 24 -103 -1z"/>
<path d="M7801 2178 c-7 -68 -19 -135 -26 -150 -13 -26 -12 -28 8 -28 21 0 22
6 25 84 6 154 10 155 72 23 l53 -116 22 52 c49 117 78 177 85 177 9 0 24 -196
15 -210 -4 -6 6 -10 26 -10 24 0 29 3 21 13 -6 6 -18 73 -27 147 -9 74 -17
136 -19 137 -1 1 -26 -52 -56 -118 -29 -66 -56 -122 -60 -124 -4 -2 -30 49
-60 113 -29 64 -56 121 -60 125 -4 4 -13 -47 -19 -115z"/>
<path d="M8235 2165 c-32 -75 -64 -143 -72 -151 -12 -12 -10 -14 16 -14 22 0
29 4 25 14 -3 7 2 30 10 50 15 36 16 36 74 36 l60 0 16 -41 c9 -22 14 -45 11
-50 -4 -5 7 -9 24 -9 l30 0 -18 33 c-11 17 -40 84 -66 147 -26 63 -48 116 -50
118 -1 2 -29 -58 -60 -133z m80 23 c10 -29 20 -59 23 -65 3 -9 -10 -13 -47
-13 -28 0 -51 4 -51 9 0 17 43 121 49 121 4 0 15 -24 26 -52z"/>
<path d="M8498 2152 c-3 -130 -1 -152 12 -152 13 0 15 19 12 121 l-3 121 84
-88 c46 -49 99 -106 118 -127 l34 -38 -3 139 c-3 119 -1 142 13 156 15 15 14
16 -20 16 -33 0 -35 -1 -21 -16 13 -12 16 -38 15 -122 l0 -107 -119 125 -119
124 -3 -152z"/>
<path d="M8854 2284 c13 -12 16 -39 16 -130 0 -64 -5 -124 -11 -135 -10 -19
-7 -20 72 -17 77 3 82 5 91 28 l9 24 -24 -22 c-17 -16 -35 -22 -70 -22 l-47 0
0 133 c0 90 4 137 12 145 9 9 4 12 -26 12 -34 0 -36 -1 -22 -16z"/>
<path d="M9083 2289 c15 -9 17 -27 17 -144 0 -97 -3 -135 -12 -138 -7 -3 1 -6
17 -6 l30 -1 -3 137 c-3 121 -1 139 14 150 15 11 11 13 -32 13 -38 -1 -45 -3
-31 -11z"/>
<path d="M9234 2284 c13 -12 16 -40 16 -138 0 -81 -4 -126 -12 -134 -9 -9 -4
-12 22 -12 26 0 31 3 22 12 -8 8 -12 53 -12 134 0 98 3 126 16 138 14 15 12
16 -26 16 -38 0 -40 -1 -26 -16z"/>
<path d="M9385 2288 c3 -7 -17 -42 -45 -77 l-49 -64 31 -40 c55 -69 95 -107
112 -107 12 0 -3 23 -48 77 -36 42 -66 79 -66 83 0 3 28 36 63 73 l62 67 -32
0 c-22 0 -31 -4 -28 -12z"/>
<path d="M4077 2123 c18 -2 50 -2 70 0 21 2 7 4 -32 4 -38 0 -55 -2 -38 -4z"/>
<path d="M9627 2123 c18 -2 50 -2 70 0 21 2 7 4 -32 4 -38 0 -55 -2 -38 -4z"/>
</g>
</svg>
