<?xml version="1.0" standalone="no"?>
<!DOCTYPE svg PUBLIC "-//W3C//DTD SVG 20010904//EN"
 "http://www.w3.org/TR/2001/REC-SVG-20010904/DTD/svg10.dtd">
<svg version="1.0" xmlns="http://www.w3.org/2000/svg"
 width="542.000000pt" height="273.000000pt" viewBox="0 0 542.000000 273.000000"
 preserveAspectRatio="xMidYMid meet">

<g transform="translate(0.000000,273.000000) scale(0.100000,-0.100000)"
fill="#5c5c5c" stroke="none">
<path d="M460 1986 c0 -14 4 -27 9 -30 4 -3 -26 -98 -67 -211 -61 -166 -79
-205 -93 -205 -52 0 17 -71 88 -91 101 -28 229 -10 283 41 34 32 38 50 11 50
-12 0 -23 11 -29 28 -5 15 -38 103 -71 196 -34 93 -60 173 -59 177 2 5 68 -30
148 -76 103 -60 147 -91 152 -107 11 -39 9 -708 -2 -708 -5 0 -10 -9 -10 -20
0 -17 -7 -20 -45 -20 -62 0 -104 -23 -112 -60 -4 -25 -10 -30 -34 -30 -26 0
-29 -4 -29 -30 l0 -30 275 0 275 0 0 30 c0 27 -3 30 -30 30 -19 0 -30 5 -30
14 0 8 -10 27 -23 42 -19 22 -34 28 -80 32 -47 4 -57 8 -57 23 0 11 -7 19 -15
19 -13 0 -15 45 -15 345 l0 345 23 -14 c12 -7 76 -45 143 -84 73 -43 124 -80
131 -94 9 -19 -2 -56 -62 -223 -61 -167 -76 -201 -94 -203 -26 -4 -26 -12 -1
-45 65 -83 315 -83 380 0 25 32 25 43 1 43 -12 0 -23 11 -29 28 -5 15 -38 103
-71 196 -43 117 -59 172 -51 180 18 18 12 39 -10 33 -12 -3 -21 1 -25 12 -3 9
-75 57 -160 106 -150 87 -155 91 -155 122 0 18 -5 33 -10 33 -7 0 -7 6 -1 18
7 14 4 34 -11 75 -11 31 -24 55 -28 52 -3 -2 -15 -29 -25 -59 -15 -43 -16 -58
-7 -69 10 -12 9 -16 -2 -20 -9 -4 -78 31 -162 79 -105 61 -149 82 -154 74 -6
-9 -10 -6 -15 9 -9 30 -45 28 -45 -3z m26 -443 c-2 -2 -33 -3 -69 -1 l-64 3
66 181 66 182 3 -181 c1 -99 1 -182 -2 -184z m132 80 l31 -83 -70 0 -69 0 1
188 0 187 39 -105 c21 -58 52 -142 68 -187z m730 -420 l31 -83 -70 0 -69 0 1
188 0 187 39 -105 c21 -58 52 -142 68 -187z m-128 97 l0 -180 -65 0 c-36 0
-65 3 -65 8 0 9 123 352 127 352 2 0 3 -81 3 -180z"/>
<path d="M2230 1450 c0 -153 -2 -174 -17 -186 -16 -12 -12 -13 31 -14 47 0 48
1 32 19 -14 15 -16 37 -14 140 l3 122 129 -141 c72 -77 132 -140 135 -140 3 0
5 74 3 164 -3 161 -3 164 20 180 22 16 21 16 -32 16 -42 -1 -51 -3 -37 -11 15
-9 17 -26 17 -137 l0 -127 -47 50 c-26 28 -87 92 -135 144 l-88 93 0 -172z"/>
<path d="M2601 1580 c0 -31 1 -32 9 -12 8 19 17 22 65 22 l55 0 0 -154 c0
-148 -1 -154 -22 -169 -22 -15 -20 -16 37 -16 52 0 58 1 43 13 -16 12 -18 32
-18 170 l0 156 50 0 c43 0 52 -3 60 -22 9 -23 11 -18 13 22 1 20 -5 21 -146
23 l-147 2 1 -35z"/>
<path d="M3091 1599 c19 -19 20 -30 17 -164 -3 -130 -5 -146 -23 -159 -19 -14
-16 -15 39 -16 l60 0 -22 20 c-18 17 -22 32 -22 85 l0 65 100 0 100 0 0 -71
c0 -57 -4 -75 -17 -85 -16 -12 -10 -13 42 -13 57 0 59 1 38 16 -22 15 -23 21
-23 164 0 141 1 149 22 163 21 15 20 16 -37 16 -46 -1 -56 -3 -42 -11 14 -8
17 -24 17 -84 l0 -75 -100 0 -100 0 0 69 c0 61 3 72 22 85 21 15 20 16 -35 16
l-57 0 21 -21z"/>
<path d="M1823 1599 c15 -9 17 -28 17 -166 0 -137 -2 -157 -17 -169 -15 -11
-5 -13 72 -13 50 0 108 4 129 9 98 22 152 109 132 215 -9 48 -68 112 -114 125
-50 14 -243 13 -219 -1z m217 -27 c99 -50 101 -236 3 -282 -16 -7 -58 -15 -95
-18 l-68 -5 0 162 0 161 63 0 c39 0 75 -6 97 -18z"/>
<path d="M3466 1562 c7 -4 13 -52 16 -117 2 -60 10 -120 17 -132 17 -33 63
-53 120 -53 42 0 56 5 83 29 l33 29 3 114 c3 90 7 116 20 126 13 10 8 12 -34
12 -38 -1 -45 -3 -31 -11 14 -9 17 -26 17 -120 0 -103 -1 -111 -25 -134 -18
-19 -35 -25 -67 -25 -79 1 -98 35 -98 175 0 79 3 96 18 104 13 8 6 10 -33 11
-27 0 -45 -4 -39 -8z"/>
<path d="M3828 1554 c21 -14 22 -22 22 -140 0 -102 -3 -126 -15 -130 -31 -12
-13 -24 37 -24 l52 0 -22 20 c-20 19 -22 30 -22 140 0 112 1 120 22 134 21 15
20 16 -37 16 -57 0 -58 -1 -37 -16z"/>
<path d="M3996 1555 c4 -9 -14 -38 -46 -75 -28 -33 -50 -64 -48 -69 6 -18 113
-125 138 -138 14 -7 34 -13 44 -13 15 0 10 8 -21 35 -23 19 -60 58 -83 86
l-43 50 49 51 c27 28 63 59 79 69 l30 19 -52 0 c-42 0 -51 -3 -47 -15z"/>
<path d="M4133 1559 c14 -9 17 -26 17 -120 l0 -111 34 -34 c31 -31 40 -34 91
-34 51 0 60 3 91 34 l34 34 0 111 c0 94 3 111 18 120 13 8 6 10 -33 10 -39 0
-46 -2 -32 -10 14 -9 17 -26 17 -120 0 -103 -1 -111 -25 -134 -34 -35 -102
-35 -135 0 -20 22 -24 37 -28 128 -4 88 -2 106 12 120 16 16 15 17 -31 17 -37
-1 -44 -3 -30 -11z"/>
<path d="M4480 1563 c27 -10 30 -26 30 -151 0 -100 -3 -124 -15 -128 -31 -12
-13 -24 38 -24 45 1 50 2 35 14 -16 11 -18 31 -18 144 0 114 2 132 18 141 13
8 2 10 -43 10 -33 0 -53 -3 -45 -6z"/>
<path d="M4659 1561 c11 -7 2 -23 -43 -76 l-56 -67 29 -36 c53 -67 106 -111
139 -118 33 -7 47 10 14 18 -9 3 -45 37 -80 75 l-62 71 52 57 c29 32 66 64 83
71 29 13 28 13 -30 13 -39 1 -55 -2 -46 -8z"/>
<path d="M2110 1005 c0 -58 2 -65 20 -65 15 0 20 7 20 25 0 20 5 25 25 25 20
0 25 -5 25 -25 0 -18 5 -25 20 -25 18 0 20 7 20 65 0 58 -2 65 -20 65 -15 0
-20 -7 -20 -25 0 -20 -5 -25 -25 -25 -20 0 -25 5 -25 25 0 18 -5 25 -20 25
-18 0 -20 -7 -20 -65z"/>
<path d="M2260 1036 c0 -69 36 -115 80 -101 37 12 50 35 50 86 0 42 -3 49 -20
49 -17 0 -20 -7 -20 -51 0 -47 -2 -50 -22 -47 -20 3 -23 10 -26 51 -3 39 -6
47 -23 47 -15 0 -19 -7 -19 -34z"/>
<path d="M2410 1005 c0 -58 2 -65 20 -65 13 0 20 7 20 20 0 11 4 20 8 20 5 0
17 -9 27 -20 10 -11 27 -20 38 -20 18 0 17 3 -8 36 l-27 36 28 29 c24 25 25
29 9 29 -10 0 -32 -12 -47 -27 l-28 -27 0 27 c0 20 -5 27 -20 27 -18 0 -20 -7
-20 -65z"/>
<path d="M2552 1013 c3 -52 6 -59 31 -71 22 -11 32 -11 55 0 24 12 27 19 30
71 2 46 0 57 -13 57 -10 0 -15 -10 -15 -34 0 -47 -9 -66 -30 -66 -21 0 -30 19
-30 66 0 24 -5 34 -15 34 -13 0 -15 -11 -13 -57z"/>
<path d="M2700 1005 c0 -51 3 -65 15 -65 8 0 15 6 15 14 0 26 20 28 38 6 10
-12 26 -21 35 -19 16 4 15 8 -8 38 l-25 35 27 28 c23 25 24 28 8 28 -10 0 -32
-12 -47 -27 l-28 -27 0 27 c0 17 -5 27 -15 27 -12 0 -15 -14 -15 -65z"/>
<path d="M2904 1055 c-3 -8 -4 -20 -1 -27 2 -7 -2 -21 -10 -30 -9 -9 -12 -25
-9 -36 7 -21 49 -37 68 -26 6 4 20 7 31 8 16 1 21 8 21 31 0 25 -4 30 -22 28
-24 -3 -28 7 -11 24 7 7 9 19 6 27 -8 21 -66 21 -73 1z m46 -15 c0 -5 -4 -10
-10 -10 -5 0 -10 5 -10 10 0 6 5 10 10 10 6 0 10 -4 10 -10z m-5 -61 c10 -15
-1 -23 -20 -15 -9 3 -13 10 -10 16 8 13 22 13 30 -1z"/>
<path d="M3080 1005 l0 -65 48 0 c57 0 82 20 82 67 0 42 -27 63 -83 63 l-47 0
0 -65z m90 20 c20 -24 3 -55 -31 -55 -27 0 -29 3 -29 35 0 30 3 35 24 35 13 0
29 -7 36 -15z"/>
<path d="M3246 1014 c-14 -31 -26 -60 -26 -65 0 -12 27 -11 35 1 9 14 51 13
75 -2 31 -20 32 -4 4 61 -35 79 -54 81 -88 5z m54 -9 c0 -8 -7 -15 -15 -15 -9
0 -12 6 -9 15 4 8 10 15 15 15 5 0 9 -7 9 -15z"/>
<path d="M3370 1005 c0 -58 2 -65 20 -65 16 0 20 7 20 33 l1 32 29 -32 c47
-52 60 -45 60 32 0 58 -2 65 -20 65 -16 0 -20 -7 -20 -32 l-1 -33 -27 33 c-15
18 -35 32 -44 32 -15 0 -18 -10 -18 -65z"/>
<path d="M3520 1005 c0 -58 2 -65 20 -65 18 0 20 7 20 65 0 58 -2 65 -20 65
-18 0 -20 -7 -20 -65z"/>
<path d="M3592 1058 c-23 -23 -13 -48 23 -64 42 -17 38 -36 -5 -27 -23 4 -30
2 -30 -10 0 -8 12 -17 28 -20 69 -14 111 57 45 77 -41 11 -43 26 -3 26 20 0
30 5 30 15 0 19 -70 21 -88 3z"/>
<path d="M3709 1063 c-1 -5 -2 -34 -3 -65 -1 -49 2 -58 17 -58 12 0 17 8 17
33 l1 32 15 -27 c18 -34 27 -35 47 -5 l16 22 0 -27 c1 -21 6 -28 21 -28 18 0
20 7 20 65 0 55 -3 65 -17 65 -10 0 -28 -17 -39 -38 l-22 -37 -22 38 c-20 33
-48 50 -51 30z"/>
<path d="M3900 1013 c-14 -31 -26 -61 -28 -65 -2 -4 6 -8 17 -8 12 0 21 5 21
10 0 6 16 10 35 10 19 0 35 -4 35 -10 0 -5 9 -10 20 -10 18 0 18 3 -9 63 -38
85 -59 87 -91 10z m48 -22 c-15 -5 -19 4 -11 24 6 18 7 18 13 -1 4 -10 3 -21
-2 -23z"/>
<path d="M4030 1005 c0 -51 3 -65 15 -65 11 0 15 11 15 37 l0 38 31 -38 c46
-56 59 -50 59 28 0 51 -3 65 -15 65 -11 0 -15 -11 -15 -37 l0 -38 -31 38 c-46
56 -59 50 -59 -28z"/>
<path d="M4180 1005 l0 -65 50 0 c38 0 50 4 50 15 0 10 -11 15 -35 15 l-35 0
0 50 c0 38 -4 50 -15 50 -12 0 -15 -14 -15 -65z"/>
<path d="M4290 1005 c0 -58 2 -65 20 -65 18 0 20 7 20 65 0 58 -2 65 -20 65
-18 0 -20 -7 -20 -65z"/>
<path d="M4350 1005 c0 -58 2 -65 20 -65 13 0 20 7 20 20 0 11 4 20 8 20 5 0
17 -9 27 -20 10 -11 27 -20 38 -20 18 0 17 3 -8 36 l-27 36 28 29 c24 25 25
29 9 29 -10 0 -32 -12 -47 -27 l-28 -27 0 27 c0 20 -5 27 -20 27 -18 0 -20 -7
-20 -65z"/>
<path d="M1730 1010 l0 -30 100 0 100 0 0 30 0 30 -100 0 -100 0 0 -30z"/>
<path d="M4580 990 l0 -30 100 0 100 0 0 30 0 30 -100 0 -100 0 0 -30z"/>
</g>
</svg>
