<?xml version="1.0" ?><svg height="24px" version="1.1" viewBox="0 0 24 24" width="24px" xmlns="http://www.w3.org/2000/svg" xmlns:sketch="http://www.bohemiancoding.com/sketch/ns" xmlns:xlink="http://www.w3.org/1999/xlink"><title/><desc/><defs/><g fill="none" fill-rule="evenodd" id="miu" stroke="none" stroke-width="1"><g id="Artboard-1" transform="translate(-863.000000, -119.000000)"><g id="slice" transform="translate(215.000000, 119.000000)"/><path d="M868.437303,122.730196 C870.30228,121.033947 872.780394,120 875.5,120 C881.29899,120 886,124.70101 886,130.5 C886,133.219606 884.966053,135.69772 883.269804,137.562697 L868.437303,122.730196 Z M867.730196,123.437303 C866.033947,125.30228 865,127.780394 865,130.5 C865,136.29899 869.70101,141 875.5,141 C878.219606,141 880.69772,139.966053 882.562697,138.269804 L867.730196,123.437303 Z M864,130.5 C864,124.148725 869.148725,119 875.5,119 C881.851275,119 887,124.148725 887,130.5 C887,136.851275 881.851275,142 875.5,142 C869.148725,142 864,136.851275 864,130.5 Z" fill="#000000" id="circle-no-forbidden-outline-stroke"/></g></g></svg>